<svg width="24" height="24" viewBox="0 0 24 24" fill="none" xmlns="http://www.w3.org/2000/svg">
<path d="M21.1088 15.7168C20.6067 15.294 19.9882 15.0838 19.362 15.1233C19.1314 15.1233 18.8961 15.139 18.6597 15.1547L18.5095 15.1626C18.5364 15.0041 18.5527 14.8435 18.5584 14.6822C19.7812 13.6131 19.8161 11.4593 19.7707 10.5828C19.7414 9.91199 19.4911 9.27753 19.0685 8.80317C18.5878 8.28646 17.9514 7.99306 17.2867 7.98171C17.2479 7.97778 17.2063 7.97778 17.1644 7.97778C16.6656 7.99137 16.1808 8.16609 15.7678 8.48109C15.3549 8.79608 15.0311 9.23807 14.8353 9.75433C14.6749 10.2562 14.614 10.7915 14.6571 11.3226C14.7165 12.431 14.8213 13.4922 15.4467 14.235C15.5864 14.4 15.7464 14.5416 15.9218 14.6556C15.9314 14.8244 15.9501 14.9924 15.9777 15.1587L15.8799 15.1547C15.6423 15.139 15.4117 15.1233 15.1847 15.1233C14.5607 15.0845 13.9445 15.2946 13.4448 15.7168C13.0511 16.0982 12.7971 16.6304 12.7321 17.2103C12.6655 17.5738 12.6304 17.9437 12.6273 18.3148C12.6308 18.7393 13.1269 18.8493 13.4902 18.9319C13.5461 18.9438 13.5985 18.9556 13.6474 18.9672C14.7952 19.2327 15.9663 19.3488 17.1376 19.3131C17.3053 19.3131 17.4695 19.3131 17.6423 19.3092C19.0411 19.3206 20.4348 19.1196 21.7858 18.7118C21.8214 18.7037 21.8531 18.6812 21.875 18.6486C21.8969 18.6161 21.9074 18.5756 21.9046 18.5349C21.9167 18.5079 21.9216 18.4776 21.9186 18.4476C21.8914 17.4462 21.8076 16.326 21.1088 15.7168ZM15.4385 13.5865C15.0503 12.8672 15.0193 11.9161 14.9948 11.1496C14.9575 10.5613 15.0845 9.97449 15.3582 9.47134C15.6525 9.00898 16.0715 8.66576 16.553 8.49267C16.783 8.38681 17.0279 8.32766 17.2762 8.31798C17.3557 8.31881 17.4351 8.32537 17.5138 8.33764C17.7769 8.38815 18.0322 8.4808 18.2719 8.61276C18.7308 8.85484 19.094 9.27891 19.2921 9.80368C19.3891 10.0781 19.4434 10.3693 19.4528 10.6644C19.5207 12.8559 18.9148 14.2193 17.6574 14.7185C17.5219 14.7731 17.3787 14.7998 17.2347 14.7971C16.8712 14.7709 16.5186 14.6474 16.2061 14.4368C15.8937 14.2262 15.6305 13.9347 15.4385 13.5865ZM18.1846 14.9543C18.1767 15.2028 18.1166 15.4456 18.0091 15.6629C17.9016 15.8802 17.7498 16.0657 17.5662 16.2042C17.4394 16.2772 17.2998 16.3174 17.1574 16.3221C16.5635 16.3221 16.3644 15.3984 16.3034 14.9268C16.6068 15.1126 16.9436 15.2188 17.2886 15.2373C17.3602 15.2374 17.4316 15.2295 17.5018 15.2137C17.7397 15.1664 17.9699 15.0789 18.1846 14.9543ZM17.6411 18.9201C17.4594 18.9201 17.2778 18.924 17.0926 18.924C15.696 18.9849 14.2999 18.787 12.9603 18.3384C13.0057 17.3676 13.1106 16.381 13.8163 15.9015C14.276 15.6097 14.8017 15.4758 15.3283 15.5163L15.6846 15.5203C15.8034 15.5203 15.9257 15.5163 16.0515 15.5124C16.2506 16.2906 16.6314 16.7033 17.152 16.7033C17.2579 16.7019 17.3634 16.6873 17.4664 16.6596C17.7055 16.585 17.922 16.4383 18.0925 16.2354C18.2629 16.0326 18.3809 15.7812 18.4338 15.5085C18.5842 15.5163 18.7309 15.5203 18.874 15.5203L19.2408 15.5163C19.762 15.4778 20.2818 15.6117 20.7362 15.9015C21.4978 16.4164 21.5537 17.5405 21.5902 18.3698C20.3002 18.7456 18.9721 18.9306 17.6396 18.9201H17.6411Z" fill="#528693"/>
<path fill-rule="evenodd" clip-rule="evenodd" d="M21.3258 15.4681C21.7477 15.8359 21.9671 16.3434 22.0872 16.8606C22.2063 17.3741 22.2347 17.9301 22.2484 18.4299C22.2521 18.4841 22.2472 18.5389 22.2333 18.592C22.2261 18.6764 22.1981 18.7598 22.1491 18.8328C22.0867 18.9257 21.9911 18.9996 21.8734 19.0303C20.495 19.4455 19.0726 19.6505 17.6447 19.6394C17.4713 19.6433 17.3066 19.6433 17.1427 19.6433C15.9445 19.6794 14.7467 19.5604 13.5731 19.289L13.571 19.2885C13.5249 19.2775 13.475 19.2663 13.4213 19.2548L13.4171 19.2539C13.4102 19.2523 13.4032 19.2507 13.396 19.2491C13.2256 19.2105 12.976 19.154 12.7681 19.0427C12.5366 18.9189 12.3003 18.6942 12.2972 18.3176L12.2971 18.3121C12.3005 17.9258 12.3367 17.5408 12.4054 17.1621C12.4805 16.5157 12.7653 15.9156 13.2151 15.4798L13.2313 15.4641C13.79 14.9922 14.4853 14.7519 15.1948 14.7933C15.3175 14.7935 15.4408 14.798 15.5633 14.8045C15.4298 14.6995 15.3064 14.5802 15.1948 14.4485C14.4887 13.6098 14.3863 12.4352 14.3277 11.3448C14.282 10.7727 14.3477 10.1958 14.5209 9.65392L14.5262 9.63717C14.7425 9.06707 15.1026 8.57348 15.5677 8.21871C16.0333 7.86353 16.5845 7.66345 17.1555 7.64789L17.1645 7.64764L17.1699 7.64777C17.2047 7.64775 17.2543 7.64773 17.305 7.65199C18.0608 7.66845 18.7756 8.00372 19.3102 8.57843L19.3151 8.58363C19.791 9.11781 20.0678 9.82553 20.1005 10.5671C20.1239 11.0203 20.127 11.8071 19.9639 12.6249C19.8125 13.3841 19.5098 14.2105 18.9072 14.8083C19.0541 14.7999 19.2035 14.7936 19.3518 14.7933C20.0634 14.7512 20.7605 14.9919 21.3215 15.4644L21.3258 15.4681ZM19.362 15.1234C19.9882 15.0839 20.6068 15.2941 21.1089 15.7169C21.6647 16.2015 21.8314 17.0094 21.8901 17.8237C21.9029 18.0018 21.9105 18.1802 21.916 18.3556C21.9169 18.3864 21.9178 18.4171 21.9186 18.4477C21.9216 18.4777 21.9168 18.508 21.9046 18.535C21.9069 18.5671 21.9008 18.5991 21.8873 18.6272C21.8837 18.6347 21.8796 18.6419 21.875 18.6487C21.8532 18.6813 21.8214 18.7038 21.7859 18.7119C20.4348 19.1197 19.0411 19.3207 17.6423 19.3093C17.4696 19.3132 17.3054 19.3132 17.1377 19.3132C15.9663 19.3489 14.7952 19.2328 13.6475 18.9673C13.5986 18.9557 13.5461 18.9439 13.4902 18.932L13.4835 18.9304C13.2271 18.8722 12.9071 18.7995 12.7403 18.6129C12.6787 18.544 12.638 18.4596 12.6291 18.3547C12.628 18.3418 12.6274 18.3285 12.6273 18.3149C12.6305 17.9438 12.6656 17.5739 12.7321 17.2104C12.7972 16.6305 13.0511 16.0983 13.4448 15.7169C13.9446 15.2947 14.5607 15.0846 15.1847 15.1234C15.3348 15.1234 15.4863 15.1303 15.6405 15.1394C15.7128 15.1438 15.7857 15.1486 15.8593 15.1535L15.8799 15.1548L15.9778 15.1588C15.9595 15.0487 15.9451 14.9379 15.9347 14.8267C15.9294 14.7698 15.9251 14.7128 15.9219 14.6557C15.7465 14.5417 15.5865 14.4001 15.4467 14.2351C14.8214 13.4923 14.7165 12.4311 14.6571 11.3227C14.6141 10.7916 14.6749 10.2563 14.8353 9.75443C15.0312 9.23817 15.3549 8.79618 15.7679 8.48119C16.1809 8.16619 16.6657 7.99147 17.1645 7.97788C17.2064 7.97788 17.2479 7.97788 17.2867 7.98181C17.9515 7.99316 18.5879 8.28656 19.0685 8.80327C19.1805 8.92893 19.2803 9.06582 19.3672 9.21164C19.457 9.36236 19.5329 9.52262 19.5939 9.68988C19.5947 9.69203 19.5955 9.69418 19.5962 9.69633C19.6976 9.97632 19.7574 10.2758 19.7708 10.5829C19.772 10.6058 19.7731 10.6297 19.7742 10.6543C19.7742 10.6544 19.7742 10.6543 19.7742 10.6543C19.7921 11.0716 19.7885 11.7275 19.6672 12.4163C19.5219 13.2418 19.2075 14.1149 18.5585 14.6823C18.5567 14.7316 18.554 14.7809 18.5502 14.83C18.5418 14.9416 18.5282 15.0526 18.5095 15.1627L18.6598 15.1548L18.6633 15.1546C18.7246 15.1505 18.7859 15.1464 18.847 15.1427C19.0203 15.1319 19.1924 15.1234 19.362 15.1234ZM15.4386 13.5866C15.6305 13.9348 15.8937 14.2263 16.2062 14.4369C16.5186 14.6475 16.8713 14.771 17.2347 14.7972C17.3787 14.7999 17.5219 14.7732 17.6575 14.7186C18.535 14.3702 19.0952 13.6009 19.3305 12.4229C19.4324 11.913 19.4734 11.3266 19.4528 10.6645C19.4522 10.6428 19.4512 10.6212 19.45 10.5995C19.45 10.5986 19.45 10.5978 19.4499 10.5969C19.4349 10.3249 19.3817 10.0572 19.2921 9.80378C19.2357 9.65414 19.1657 9.51269 19.084 9.38132C18.8791 9.05196 18.6 8.78591 18.272 8.61286C18.0322 8.4809 17.7769 8.38825 17.5138 8.33774C17.4351 8.32547 17.3557 8.31891 17.2763 8.31808C17.0279 8.32776 16.7831 8.38691 16.5531 8.49277C16.0716 8.66586 15.6525 9.00908 15.3582 9.47144C15.0846 9.97459 14.9575 10.5614 14.9949 11.1497C15.0193 11.9162 15.0504 12.8673 15.4386 13.5866ZM15.6428 9.63918C15.4035 10.0838 15.291 10.6046 15.3243 11.1288L15.325 11.1392C15.35 11.9247 15.3847 12.7907 15.7284 13.4285C15.8964 13.7329 16.1245 13.9838 16.3907 14.1632C16.6543 14.3408 16.9485 14.4439 17.2493 14.4672C17.3454 14.4679 17.4416 14.4497 17.534 14.4124L17.5357 14.4117C18.5918 13.9924 19.1895 12.8252 19.1229 10.675C19.1146 10.4145 19.0668 10.1581 18.982 9.91708C18.8097 9.46263 18.4985 9.10564 18.1179 8.90484L18.1128 8.90211C17.9044 8.78743 17.6838 8.70716 17.4574 8.66305C17.3988 8.65419 17.3399 8.64926 17.2809 8.64829C17.0795 8.65722 16.8799 8.70573 16.6911 8.79264L16.6781 8.7986L16.6647 8.80342C16.2603 8.9488 15.9004 9.23878 15.6428 9.63918ZM17.4665 16.6597C17.3634 16.6874 17.258 16.702 17.152 16.7034C16.6315 16.7034 16.2507 16.2907 16.0515 15.5125L16.0411 15.5128C15.919 15.5166 15.8002 15.5204 15.6847 15.5204L15.3283 15.5164C14.8017 15.4759 14.2761 15.6098 13.8163 15.9016C13.1106 16.3811 13.0058 17.3677 12.9604 18.3385C14.3 18.7871 15.696 18.985 17.0926 18.9241C17.1857 18.9241 17.2778 18.9231 17.3695 18.9221C17.4594 18.9212 17.5489 18.9202 17.6383 18.9202C17.6387 18.9202 17.6379 18.9202 17.6383 18.9202C17.6388 18.9202 17.6406 18.9202 17.6412 18.9202C18.9718 18.9305 20.2979 18.7459 21.5862 18.3711C21.5875 18.3707 21.5889 18.3703 21.5902 18.3699C21.583 18.2063 21.5751 18.0312 21.5611 17.8516C21.5042 17.1208 21.3476 16.3149 20.7362 15.9016C20.2819 15.6118 19.7621 15.4779 19.2409 15.5164L18.8741 15.5204C18.7309 15.5204 18.5842 15.5164 18.4338 15.5086C18.381 15.7813 18.263 16.0327 18.0925 16.2355C17.922 16.4384 17.7056 16.5851 17.4665 16.6597ZM18.6835 15.8483C18.6072 16.0681 18.4931 16.272 18.3452 16.4479C18.1366 16.6961 17.8677 16.8803 17.5649 16.9749L17.552 16.9789C17.4227 17.0135 17.2899 17.0317 17.1565 17.0335L17.152 17.0336C16.7932 17.0335 16.4819 16.887 16.2388 16.6238C16.0527 16.4224 15.9111 16.1585 15.8068 15.8493C15.766 15.85 15.7252 15.8505 15.6847 15.8505H15.681L15.3029 15.8463C14.8514 15.8115 14.3982 15.9246 13.9977 16.1775C13.7342 16.3583 13.5658 16.6428 13.4586 17.025C13.3686 17.3454 13.3279 17.7118 13.3036 18.1024C14.532 18.4838 15.8051 18.6498 17.0783 18.5943L17.0926 18.5937C17.1832 18.5937 17.2731 18.593 17.3647 18.592L17.3668 18.592C17.4566 18.5911 17.5479 18.5901 17.6396 18.5901C17.6401 18.5901 17.6391 18.5901 17.6396 18.5901L17.6412 18.7228L17.6422 18.5901C18.8565 18.5996 20.0672 18.4428 21.2479 18.1232C21.2293 17.7807 21.198 17.4259 21.1151 17.0989C21.0118 16.691 20.8392 16.3714 20.5548 16.1775C20.1595 15.9264 19.7116 15.8126 19.2652 15.8456L19.2444 15.8472L18.8741 15.8505C18.8111 15.8505 18.7476 15.8498 18.6835 15.8483ZM18.1334 15.3237C18.1465 15.2711 18.1572 15.2178 18.1654 15.164C18.176 15.0949 18.1824 15.0249 18.1846 14.9544C18.0731 15.0191 17.9573 15.0739 17.8385 15.1181C17.7286 15.1591 17.6161 15.1911 17.5018 15.2138C17.4316 15.2296 17.3602 15.2375 17.2887 15.2374C17.0759 15.226 16.8663 15.1812 16.6657 15.105C16.541 15.0577 16.4198 14.9981 16.3035 14.9269C16.3186 15.0442 16.3423 15.1896 16.3786 15.3417C16.4879 15.801 16.7113 16.3222 17.1575 16.3222C17.2998 16.3175 17.4395 16.2773 17.5662 16.2043C17.7498 16.0658 17.9016 15.8803 18.0091 15.663C18.0574 15.5654 18.0961 15.4627 18.1249 15.3566C18.1278 15.3456 18.1307 15.3347 18.1334 15.3237ZM17.3844 15.9277C17.5174 15.8231 17.6307 15.6834 17.7132 15.5166C17.7157 15.5117 17.7181 15.5067 17.7205 15.5018C17.6707 15.515 17.6206 15.5267 17.5702 15.5368C17.4774 15.5574 17.3829 15.5677 17.2881 15.5675L17.271 15.5675C17.098 15.5582 16.9273 15.5295 16.761 15.4834C16.7817 15.5462 16.805 15.6073 16.8312 15.6649C16.9478 15.9217 17.0617 15.9898 17.1528 15.992C17.2314 15.9885 17.3101 15.9672 17.3844 15.9277Z" fill="#528693"/>
<path d="M21.5871 18.3698C20.2979 18.7453 18.9708 18.9302 17.6392 18.92C17.4575 18.92 17.2758 18.924 17.0907 18.924C15.6945 18.9846 14.299 18.7868 12.9599 18.3383C13.0053 17.3675 13.1102 16.381 13.8159 15.9015C14.2756 15.6097 14.8013 15.4758 15.3279 15.5163L15.6842 15.5202C15.803 15.5202 15.9253 15.5163 16.0511 15.5124C16.2502 16.2906 16.631 16.7033 17.1516 16.7033C17.2575 16.7018 17.363 16.6872 17.466 16.6596C17.7051 16.5849 17.9216 16.4383 18.0921 16.2354C18.2625 16.0325 18.3806 15.7812 18.4334 15.5084C18.5838 15.5163 18.7305 15.5202 18.8736 15.5202L19.2405 15.5163C19.7616 15.4777 20.2814 15.6116 20.7358 15.9015C21.4962 16.4164 21.5521 17.5405 21.5871 18.3698Z" fill="#BFF6F8"/>
<path d="M18.1849 14.9543C18.177 15.2028 18.1169 15.4456 18.0094 15.6629C17.9019 15.8802 17.7501 16.0657 17.5665 16.2041C17.4398 16.2772 17.3001 16.3174 17.1578 16.3221C16.5638 16.3221 16.3647 15.3984 16.3037 14.9268C16.6071 15.1126 16.9439 15.2188 17.289 15.2373C17.3605 15.2374 17.4319 15.2295 17.5021 15.2137C17.74 15.1664 17.9702 15.0789 18.1849 14.9543Z" fill="white"/>
<path d="M19.4523 10.666C19.5202 12.8556 18.9143 14.2191 17.6569 14.7182C17.5214 14.7729 17.3781 14.7995 17.2342 14.7968C16.8708 14.7706 16.5182 14.6471 16.2058 14.4365C15.8935 14.2259 15.6303 13.9344 15.4384 13.5863C15.0502 12.867 15.0192 11.9158 14.9947 11.1494C14.9574 10.561 15.0844 9.97426 15.358 9.47111C15.6523 9.00874 16.0714 8.66552 16.5529 8.49243C16.7829 8.38657 17.0277 8.32743 17.2761 8.31775C17.3556 8.31857 17.4349 8.32514 17.5137 8.3374C17.7768 8.38792 18.0321 8.48057 18.2718 8.61253C18.7306 8.85461 19.0939 9.27868 19.292 9.80345C19.389 10.0785 19.4432 10.3702 19.4523 10.666Z" fill="white"/>
<path d="M17.3838 15.2172C16.5051 14.5594 15.4227 14.2325 14.3268 14.2939C13.9233 14.2939 13.5116 14.3184 13.0979 14.3429L12.835 14.3551C12.882 14.1085 12.9106 13.8587 12.9206 13.6078C15.0605 11.9448 15.1216 8.59435 15.0421 7.23093C14.9909 6.18748 14.5528 5.20054 13.8132 4.46265C12.9721 3.65887 11.8584 3.20248 10.6951 3.18482C10.6271 3.17871 10.5544 3.17871 10.4811 3.17871C9.60818 3.19985 8.75978 3.47163 8.03707 3.96163C7.31436 4.45162 6.74784 5.13916 6.40509 5.94223C6.12435 6.72289 6.01792 7.55554 6.09327 8.38172C6.19721 10.1059 6.38063 11.7566 7.47504 12.9122C7.71959 13.1688 7.9996 13.3891 8.30654 13.5664C8.32327 13.829 8.35594 14.0903 8.40436 14.349L8.23317 14.3429C7.81742 14.3184 7.4139 14.2939 7.01649 14.2939C5.92452 14.2336 4.84627 14.5605 3.97172 15.2172C3.28273 15.8105 2.83832 16.6383 2.72447 17.5405C2.60805 18.1059 2.54663 18.6813 2.54105 19.2585C2.54716 19.9188 3.41535 20.09 4.0512 20.2184C4.14903 20.237 4.24074 20.2553 4.32633 20.2734C6.33492 20.6864 8.38435 20.8669 10.4342 20.8115C10.7277 20.8115 11.015 20.8115 11.3173 20.8053C13.7652 20.823 16.2043 20.5104 18.5685 19.876C18.6308 19.8634 18.6863 19.8285 18.7246 19.7778C18.7629 19.7272 18.7813 19.6642 18.7764 19.6009C18.7976 19.5589 18.8061 19.5117 18.8009 19.465C18.7533 17.9073 18.6066 16.1648 17.3838 15.2172ZM7.46077 11.9034C6.78144 10.7845 6.72709 9.30493 6.68429 8.1127C6.61894 7.19747 6.84125 6.2847 7.32015 5.50203C7.83518 4.78279 8.56848 4.24889 9.41113 3.97964C9.81362 3.81497 10.2421 3.72297 10.6767 3.70791C10.8158 3.70919 10.9547 3.7194 11.0925 3.73848C11.5529 3.81706 11.9997 3.96119 12.4192 4.16646C13.2222 4.54302 13.8579 5.20269 14.2045 6.019C14.3742 6.44593 14.4693 6.89883 14.4857 7.35796C14.6046 10.7669 13.5442 12.8877 11.3438 13.6642C11.1066 13.7493 10.856 13.7907 10.604 13.7865C9.96796 13.7458 9.35082 13.5537 8.80405 13.2261C8.25728 12.8985 7.79673 12.445 7.46077 11.9034ZM12.2664 14.031C12.2526 14.4176 12.1473 14.7954 11.9592 15.1334C11.7711 15.4714 11.5055 15.7599 11.1842 15.9753C10.9623 16.0889 10.718 16.1515 10.4689 16.1587C9.42947 16.1587 9.08098 14.7219 8.97432 13.9882C9.5052 14.2774 10.0947 14.4425 10.6985 14.4712C10.8237 14.4715 10.9486 14.4592 11.0714 14.4346C11.4878 14.361 11.8906 14.2249 12.2664 14.031ZM11.3153 20.2001C10.9974 20.2001 10.6794 20.2062 10.3554 20.2062C7.91127 20.3008 5.4682 19.9931 3.12391 19.2952C3.2034 17.785 3.38681 16.2504 4.62184 15.5045C5.42637 15.0506 6.34625 14.8423 7.26784 14.9053L7.89147 14.9115C8.09934 14.9115 8.31333 14.9053 8.53344 14.8992C8.88193 16.1098 9.54836 16.7518 10.4593 16.7518C10.6447 16.7496 10.8293 16.7268 11.0096 16.6838C11.428 16.5677 11.8068 16.3395 12.1051 16.024C12.4035 15.7084 12.61 15.3174 12.7025 14.8931C12.9656 14.9053 13.2224 14.9115 13.4729 14.9115L14.1148 14.9053C15.0269 14.8454 15.9365 15.0536 16.7316 15.5045C18.0645 16.3054 18.1623 18.054 18.2261 19.3441C15.9686 19.9286 13.6445 20.2164 11.3126 20.2001H11.3153Z" fill="#528693"/>
<path d="M18.2205 19.344C15.9645 19.9281 13.6421 20.2158 11.3117 20.1999C10.9938 20.1999 10.6759 20.2061 10.3518 20.2061C7.9086 20.3004 5.46647 19.9927 3.12305 19.2951C3.20253 17.7849 3.38595 16.2503 4.62097 15.5044C5.42551 15.0505 6.34538 14.8422 7.26697 14.9052L7.8906 14.9113C8.09848 14.9113 8.31246 14.9052 8.53257 14.8991C8.88107 16.1097 9.54749 16.7517 10.4585 16.7517C10.6438 16.7494 10.8284 16.7267 11.0087 16.6837C11.4272 16.5676 11.806 16.3394 12.1043 16.0239C12.4026 15.7083 12.6091 15.3173 12.7016 14.893C12.9648 14.9052 13.2215 14.9113 13.472 14.9113L14.114 14.9052C15.026 14.8452 15.9357 15.0535 16.7307 15.5044C18.0616 16.3053 18.1594 18.0539 18.2205 19.344Z" fill="#BFF6F8"/>
<path d="M12.2671 14.0308C12.2533 14.4174 12.148 14.7952 11.9599 15.1332C11.7718 15.4711 11.5062 15.7597 11.1849 15.9751C10.9631 16.0887 10.7187 16.1513 10.4696 16.1585C9.43019 16.1585 9.08169 14.7217 8.97504 13.988C9.50591 14.2771 10.0954 14.4423 10.6992 14.471C10.8244 14.4713 10.9493 14.459 11.0721 14.4344C11.4885 14.3608 11.8913 14.2247 12.2671 14.0308Z" fill="white"/>
<path d="M14.4851 7.36029C14.604 10.7665 13.5435 12.8873 11.3432 13.6638C11.106 13.7489 10.8553 13.7903 10.6034 13.7861C9.96741 13.7453 9.35041 13.5531 8.80377 13.2256C8.25713 12.898 7.79668 12.4445 7.46078 11.903C6.78145 10.7841 6.72711 9.30454 6.68431 8.11231C6.61895 7.19708 6.84127 6.28431 7.32016 5.50164C7.83519 4.7824 8.5685 4.2485 9.41115 3.97925C9.81363 3.81458 10.2421 3.72258 10.6767 3.70752C10.8158 3.7088 10.9547 3.71901 11.0925 3.73809C11.5529 3.81667 11.9997 3.96079 12.4192 4.16607C13.2222 4.54263 13.8579 5.2023 14.2045 6.01861C14.3743 6.44643 14.4692 6.90028 14.4851 7.36029Z" fill="white"/>
</svg>
