<svg width="23" height="22" viewBox="0 0 23 22" fill="none" xmlns="http://www.w3.org/2000/svg">
<path d="M5.16502 4.69092C5.16502 4.10776 5.63777 3.63501 6.22094 3.63501H17.6639C18.2471 3.63501 18.7198 4.10776 18.7198 4.69092V18.5236C18.7198 19.1068 18.2471 19.5795 17.6639 19.5795H6.22094C5.63777 19.5795 5.16502 19.1068 5.16502 18.5236V4.69092Z" fill="white"/>
<path fill-rule="evenodd" clip-rule="evenodd" d="M6.22096 3.00146H17.6639C18.597 3.00146 19.3534 3.75786 19.3534 4.69093V18.5236C19.3534 19.4567 18.597 20.2131 17.6639 20.2131H6.22095C5.28789 20.2131 4.53149 19.4567 4.53149 18.5236V4.69093C4.53149 3.75786 5.28789 3.00146 6.22096 3.00146ZM6.22096 3.63501C5.63779 3.63501 5.16504 4.10776 5.16504 4.69093V18.5236C5.16504 19.1068 5.63779 19.5795 6.22095 19.5795H17.6639C18.2471 19.5795 18.7199 19.1068 18.7199 18.5236V4.69093C18.7199 4.10776 18.2471 3.63501 17.6639 3.63501H6.22096Z" fill="#528693"/>
<path d="M8.49504 3.39992C8.49504 2.85902 8.93353 2.42053 9.47443 2.42053H14.1755C14.7164 2.42053 15.1549 2.85902 15.1549 3.39992C15.1549 3.94083 14.7164 4.37932 14.1755 4.37932H9.47443C8.93353 4.37932 8.49504 3.94083 8.49504 3.39992Z" fill="#BFF6F8"/>
<path fill-rule="evenodd" clip-rule="evenodd" d="M9.47433 1.78699H14.1754C15.0662 1.78699 15.7884 2.50912 15.7884 3.39993C15.7884 4.29073 15.0662 5.01287 14.1754 5.01287H9.47433C8.58353 5.01287 7.86139 4.29073 7.86139 3.39993C7.86139 2.50912 8.58353 1.78699 9.47433 1.78699ZM9.47433 2.42054C8.93343 2.42054 8.49494 2.85902 8.49494 3.39993C8.49494 3.94083 8.93343 4.37932 9.47433 4.37932H14.1754C14.7163 4.37932 15.1548 3.94083 15.1548 3.39993C15.1548 2.85902 14.7163 2.42054 14.1754 2.42054H9.47433Z" fill="#528693"/>
<path d="M8.00536 7.82697C8.00536 7.65202 8.14718 7.51019 8.32213 7.51019H15.3279C15.5028 7.51019 15.6447 7.65202 15.6447 7.82697C15.6447 8.00192 15.5028 8.14374 15.3279 8.14374H8.32213C8.14718 8.14374 8.00536 8.00192 8.00536 7.82697Z" fill="#528693"/>
<path d="M8.00536 10.5916C8.00536 10.4166 8.14718 10.2748 8.32213 10.2748H15.3279C15.5028 10.2748 15.6447 10.4166 15.6447 10.5916C15.6447 10.7665 15.5028 10.9083 15.3279 10.9083H8.32213C8.14718 10.9083 8.00536 10.7665 8.00536 10.5916Z" fill="#528693"/>
<path d="M8.00536 13.3562C8.00536 13.1813 8.14718 13.0394 8.32213 13.0394H15.3279C15.5028 13.0394 15.6447 13.1813 15.6447 13.3562C15.6447 13.5312 15.5028 13.673 15.3279 13.673H8.32213C8.14718 13.673 8.00536 13.5312 8.00536 13.3562Z" fill="#528693"/>
<path d="M8.00536 16.1208C8.00536 15.9458 8.14718 15.804 8.32213 15.804H15.3279C15.5028 15.804 15.6447 15.9458 15.6447 16.1208C15.6447 16.2957 15.5028 16.4376 15.3279 16.4376H8.32213C8.14718 16.4376 8.00536 16.2957 8.00536 16.1208Z" fill="#528693"/>
</svg>
