<svg width="22" height="22" viewBox="0 0 22 22" fill="none" xmlns="http://www.w3.org/2000/svg">
<path d="M5.6 19H16.4C16.7314 19 17 18.7314 17 18.4V6.64853C17 6.4894 16.9368 6.33679 16.8243 6.22426L13.7757 3.17574C13.6632 3.06321 13.5106 3 13.3515 3H5.6C5.26863 3 5 3.26863 5 3.6V18.4C5 18.7314 5.26863 19 5.6 19Z" fill="#BFF6F8"/>
<path fill-rule="evenodd" clip-rule="evenodd" d="M16.8243 6.22429L17.2486 5.80003C17.4736 6.02507 17.6 6.33029 17.6 6.64855V18.4C17.6 19.0628 17.0628 19.6 16.4 19.6H5.60002C4.93728 19.6 4.40002 19.0628 4.40002 18.4V3.60002C4.40002 2.93728 4.93728 2.40002 5.60002 2.40002H13.3515C13.6698 2.40002 13.975 2.52645 14.2 2.7515L17.2486 5.80002L16.8243 6.22429ZM16.4 19H5.60002C5.26865 19 5.00002 18.7314 5.00002 18.4V3.60002C5.00002 3.26865 5.26865 3.00002 5.60002 3.00002H13.3515C13.5106 3.00002 13.6632 3.06324 13.7758 3.17576L16.8243 6.22429C16.9368 6.33681 17 6.48942 17 6.64855V18.4C17 18.7314 16.7314 19 16.4 19Z" fill="#528693"/>
<path fill-rule="evenodd" clip-rule="evenodd" d="M13.7 2.79999V5.40001C13.7 5.78661 14.0134 6.10001 14.4 6.10001L17.4 6.10001V6.70001L14.4 6.70001C13.6821 6.70001 13.1 6.11798 13.1 5.40001V2.79999H13.7Z" fill="#528693"/>
<path fill-rule="evenodd" clip-rule="evenodd" d="M11.2139 9.28958C11.0963 9.17008 10.9037 9.17008 10.7861 9.28958L8.50201 11.6118C8.31542 11.8014 8.44981 12.1221 8.71588 12.1221H10V14.0721C10 14.2378 10.1343 14.3721 10.3 14.3721H11.7C11.8657 14.3721 12 14.2378 12 14.0721V12.1221H13.2841C13.5502 12.1221 13.6846 11.8014 13.498 11.6118L11.2139 9.28958Z" fill="white"/>
<path fill-rule="evenodd" clip-rule="evenodd" d="M10.7861 9.2896L10.3584 8.86886C10.711 8.51035 11.289 8.51035 11.6416 8.86886L13.9258 11.191C14.4855 11.7601 14.0823 12.7221 13.2841 12.7221H12.6V14.0722C12.6 14.5692 12.1971 14.9722 11.7 14.9722H10.3C9.80296 14.9722 9.40001 14.5692 9.40001 14.0722V12.7221H8.71589C7.91765 12.7221 7.5145 11.7601 8.07426 11.191L8.50201 11.6118C8.31543 11.8015 8.44981 12.1222 8.71589 12.1222H10V14.0722C10 14.2378 10.1343 14.3722 10.3 14.3722H11.7C11.8657 14.3722 12 14.2378 12 14.0722V12.1222H13.2841C13.5502 12.1222 13.6846 11.8015 13.498 11.6118L11.2139 9.2896C11.0963 9.1701 10.9037 9.1701 10.7861 9.2896ZM10.7861 9.2896L8.50201 11.6118L8.07426 11.191L10.3584 8.86886L10.7861 9.2896Z" fill="#528693"/>
</svg>
