<svg width="23" height="30" viewBox="0 0 23 30" fill="none" xmlns="http://www.w3.org/2000/svg">
<path d="M21.6035 29.4999H0.499756V1.24255H14.061L21.6035 9.05054V29.4999Z" fill="#BFF6F8"/>
<path d="M21.7676 8.50146L17.1724 3.74402L14.79 1.2627C14.7773 1.2494 14.7595 1.24418 14.7458 1.23218L14.625 1.10706C14.4014 0.875656 14.0879 0.742798 13.7656 0.742798H1.19531C0.536112 0.742798 0 1.27879 0 1.93799V28.8047C0 29.4639 0.536112 30 1.19531 30H20.9082C21.5674 30 22.1035 29.4639 22.1035 28.8047V9.33167C22.1034 9.02007 21.9844 8.72516 21.7676 8.50146ZM20.4297 8.58105H14.5771V2.49634L16.3533 4.33496L20.4297 8.58105ZM20.9082 29H1.19531C1.08791 29 1 28.9126 1 28.8047V1.93799C1 1.83009 1.08791 1.7428 1.19531 1.7428H13.5789C13.5789 1.7457 13.5771 1.74808 13.5771 1.75098V8.87659C13.5771 9.26529 13.8925 9.58118 14.2812 9.58118H21.1035V28.8047C21.1035 28.9126 21.0156 29 20.9082 29Z" fill="#528693"/>
<path d="M13.2559 21.3896H8.84621C8.69508 21.3896 8.57235 21.2815 8.57235 21.148L8.57202 15.5586C8.57202 15.4251 8.44942 15.317 8.29816 15.317H6.39162C6.16404 15.317 6.03578 15.0863 6.17482 14.9276L10.9522 9.48332C11.0623 9.35753 11.2782 9.35861 11.3871 9.48535L16.0611 14.9296C16.1978 15.0888 16.069 15.317 15.8426 15.317H13.8029C13.6518 15.317 13.5288 15.4251 13.5288 15.5586L13.5297 21.148C13.53 21.2815 13.4074 21.3896 13.2559 21.3896Z" fill="white"/>
<path d="M13.0102 22.138H8.98809C8.57647 22.138 8.24135 21.8031 8.24135 21.3907L8.24015 15.856H6.74787C6.46063 15.856 6.20455 15.6962 6.07772 15.4383C5.95089 15.1805 5.98073 14.8794 6.1567 14.6521L10.5151 9.01923C10.8011 8.64891 11.4173 8.65062 11.701 9.02462L15.9648 14.6581C16.1371 14.8854 16.1659 15.186 16.0378 15.4415C15.911 15.697 15.6549 15.8561 15.3689 15.8561H13.7557L13.7569 21.3908C13.7569 21.803 13.4218 22.138 13.0102 22.138ZM9.23461 21.1436H12.7637L12.7625 15.6083C12.7625 15.1966 13.0975 14.8614 13.5092 14.8614H14.8723L11.1039 9.8831L7.25168 14.8614H8.48787C8.89949 14.8614 9.23341 15.1965 9.23341 15.6083L9.23461 21.1436Z" fill="#528693"/>
<path d="M15.5869 24.7998H6.51562C5.79663 24.7998 5.21387 24.2171 5.21387 23.4981V21.3465C5.21387 21.2643 5.28055 21.1978 5.36255 21.1978H6.56519C6.64749 21.1978 6.71387 21.2643 6.71387 21.3465V23.1413C6.71387 23.2288 6.78486 23.2998 6.87256 23.2998H15.2302C15.3176 23.2998 15.3887 23.2289 15.3887 23.1413V21.3465C15.3887 21.2643 15.4554 21.1978 15.5374 21.1978H16.74C16.8223 21.1978 16.8887 21.2643 16.8887 21.3465V23.4981C16.8888 24.2171 16.3059 24.7998 15.5869 24.7998Z" fill="#528693"/>
</svg>
